<svg width="70" height="69" viewBox="0 0 70 69" fill="none" xmlns="http://www.w3.org/2000/svg">
<path d="M45.5223 48.0049H37.3954V39.8772C37.3954 39.791 37.3775 39.7109 37.3686 39.6261C45.5937 38.2279 51.8772 31.0549 51.8772 22.4386C51.8774 12.8226 44.0552 5 34.4387 5C24.823 5 17 12.8226 17 22.4386C17 31.0551 23.2841 38.2279 31.5083 39.6261C31.5009 39.7109 31.4826 39.7911 31.4826 39.8772V48.0049H23.3554C21.7228 48.0049 20.4001 49.3287 20.4001 50.9603C20.4001 52.5925 21.7228 53.9162 23.3554 53.9162H31.4834V62.0446C31.4834 63.6769 32.8068 65 34.4386 65C36.0707 65 37.3954 63.6762 37.3954 62.0446V53.9162H45.5223C47.1552 53.9162 48.4784 52.5926 48.4784 50.9603C48.4784 49.3288 47.1554 48.0049 45.5223 48.0049ZM22.9117 22.4386C22.9117 16.0825 28.0826 10.9108 34.4387 10.9108C40.7952 10.9108 45.9669 16.0819 45.9669 22.4386C45.9669 28.7954 40.7952 33.9657 34.4387 33.9657C28.0834 33.9658 22.9117 28.7947 22.9117 22.4386Z" fill="white"/>
</svg>
