<svg width="69" height="69" viewBox="0 0 69 69" fill="none" xmlns="http://www.w3.org/2000/svg">
<path d="M43.7026 19.6341L37.2476 26.0891C37.1791 26.1576 37.1297 26.2354 37.0694 26.3098C29.4266 20.8878 18.7393 21.5942 11.8962 28.4373C4.25901 36.0743 4.25871 48.4995 11.8961 56.1369C19.533 63.7738 31.9588 63.7741 39.5959 56.137C46.4391 49.2938 47.145 38.6062 41.7237 30.9641C41.7969 30.9026 41.8751 30.8534 41.9435 30.785L48.3985 24.33L49.9627 22.7251L51.154 21.5338L53.0927 19.6346L59.5484 13.1789C60.8447 11.8826 60.8445 9.78074 59.5485 8.48472C58.2522 7.1885 56.1489 7.1878 54.8531 8.48362L48.3974 14.9392L43.7026 19.6341ZM34.9008 51.4419C29.8527 56.4899 21.6386 56.4905 16.5905 51.4425C11.5422 46.3941 11.5417 38.1799 16.5902 33.1313C21.6388 28.0828 29.8524 28.0839 34.9008 33.1322C39.9483 38.1796 39.9488 46.3938 34.9008 51.4419Z" fill="white"/>
<path d="M53.8757 26.2408L53.8757 13.9307L42.0386 14.2342C40.0381 14.2855 38.3887 12.6778 38.3887 10.6767C38.3887 8.73564 39.9442 7.15264 41.8849 7.11859L58.9885 6.81853C60.1066 6.79891 61.0235 7.69992 61.0235 8.81822V26.2408C61.0235 28.2147 59.4234 29.8148 57.4496 29.8148C55.4758 29.8148 53.8757 28.2147 53.8757 26.2408Z" fill="white"/>
</svg>
