<svg width="24" height="24" viewBox="0 0 24 24" fill="none" xmlns="http://www.w3.org/2000/svg">
<g clip-path="url(#clip0_1461_1348)">
<mask id="mask0_1461_1348" style="mask-type:luminance" maskUnits="userSpaceOnUse" x="0" y="0" width="24" height="24">
<rect width="24" height="24" fill="white"/>
</mask>
<g mask="url(#mask0_1461_1348)">
<path fill-rule="evenodd" clip-rule="evenodd" d="M0 0V24H24V0H0Z" fill="#FFB400"/>
<mask id="mask1_1461_1348" style="mask-type:luminance" maskUnits="userSpaceOnUse" x="0" y="0" width="24" height="24">
<path fill-rule="evenodd" clip-rule="evenodd" d="M0 0V24H24V0H0Z" fill="white"/>
</mask>
<g mask="url(#mask1_1461_1348)">
<path fill-rule="evenodd" clip-rule="evenodd" d="M0 0V6H24V0H0Z" fill="#C51918"/>
<path fill-rule="evenodd" clip-rule="evenodd" d="M0 18V24H24V18H0Z" fill="#C51918"/>
<rect x="3.75598" y="10.272" width="0.84" height="5.824" fill="#F1F9FF"/>
<path fill-rule="evenodd" clip-rule="evenodd" d="M4.93198 9.26401H3.41998V9.82401H3.67198V10.272H4.67998V9.82401H4.93198V9.26401Z" fill="#C88A02"/>
<path fill-rule="evenodd" clip-rule="evenodd" d="M4.67998 16.432H4.93198V16.992H3.41998V16.432H3.67198V15.984H4.67998V16.432Z" fill="#C88A02"/>
<path fill-rule="evenodd" clip-rule="evenodd" d="M4.17595 9.37601C4.35875 9.37601 4.37733 9.28424 4.48518 9.14716C4.56892 9.04072 4.76395 8.90872 4.76395 8.76001C4.76395 8.41981 4.5007 8.14401 4.17595 8.14401C3.85121 8.14401 3.58795 8.41981 3.58795 8.76001C3.58795 8.92568 3.72226 9.03645 3.82381 9.14716C3.93081 9.2638 4.00935 9.37601 4.17595 9.37601Z" fill="#AD1619"/>
<path fill-rule="evenodd" clip-rule="evenodd" d="M3.41998 16.992H4.93198V17.888C4.93198 17.888 4.74298 17.776 4.55398 17.776C4.36498 17.776 4.17598 17.888 4.17598 17.888C4.17598 17.888 3.98698 17.776 3.79798 17.776C3.60898 17.776 3.41998 17.888 3.41998 17.888V16.992Z" fill="#005BBF"/>
<mask id="mask2_1461_1348" style="mask-type:luminance" maskUnits="userSpaceOnUse" x="3" y="16" width="2" height="2">
<path fill-rule="evenodd" clip-rule="evenodd" d="M3.41998 16.992H4.93198V17.888C4.93198 17.888 4.74298 17.776 4.55398 17.776C4.36498 17.776 4.17598 17.888 4.17598 17.888C4.17598 17.888 3.98698 17.776 3.79798 17.776C3.60898 17.776 3.41998 17.888 3.41998 17.888V16.992Z" fill="white"/>
</mask>
<g mask="url(#mask2_1461_1348)">
<path d="M3.40629 17.7119L3.37329 17.6046C3.50947 17.5238 3.64614 17.4833 3.78302 17.4833C3.87145 17.4833 3.91763 17.4997 3.99613 17.5463C4.06509 17.5872 4.10083 17.5999 4.17625 17.5999C4.25166 17.5999 4.2874 17.5872 4.35636 17.5463C4.43486 17.4997 4.48104 17.4833 4.56947 17.4833C4.70635 17.4833 4.84302 17.5238 4.9792 17.6046L4.9462 17.7119C4.82023 17.6372 4.69475 17.5999 4.56947 17.5999C4.49406 17.5999 4.45832 17.6127 4.38936 17.6536C4.31086 17.7002 4.26468 17.7166 4.17625 17.7166C4.08781 17.7166 4.04164 17.7002 3.96313 17.6536C3.89418 17.6127 3.85843 17.5999 3.78302 17.5999C3.65774 17.5999 3.53226 17.6372 3.40629 17.7119Z" fill="white"/>
<path d="M3.40629 17.3759L3.37329 17.2686C3.50947 17.1878 3.64614 17.1473 3.78302 17.1473C3.87145 17.1473 3.91763 17.1637 3.99613 17.2103C4.06509 17.2512 4.10083 17.2639 4.17625 17.2639C4.25166 17.2639 4.2874 17.2512 4.35636 17.2103C4.43486 17.1637 4.48104 17.1473 4.56947 17.1473C4.70635 17.1473 4.84302 17.1878 4.9792 17.2686L4.9462 17.3759C4.82023 17.3012 4.69475 17.2639 4.56947 17.2639C4.49406 17.2639 4.45832 17.2767 4.38936 17.3176C4.31086 17.3642 4.26468 17.3806 4.17625 17.3806C4.08781 17.3806 4.04164 17.3642 3.96313 17.3176C3.89418 17.2767 3.85843 17.2639 3.78302 17.2639C3.65774 17.2639 3.53226 17.3012 3.40629 17.3759Z" fill="white"/>
</g>
<rect x="11.988" y="10.272" width="0.84" height="5.824" fill="#F1F9FF"/>
<path fill-rule="evenodd" clip-rule="evenodd" d="M13.164 9.26401H11.652V9.82401H11.904V10.272H12.912V9.82401H13.164V9.26401Z" fill="#C88A02"/>
<path fill-rule="evenodd" clip-rule="evenodd" d="M12.912 16.432H13.164V16.992H11.652V16.432H11.904V15.984H12.912V16.432Z" fill="#C88A02"/>
<path fill-rule="evenodd" clip-rule="evenodd" d="M12.4079 9.37601C12.5907 9.37601 12.6093 9.28424 12.7172 9.14716C12.8009 9.04072 12.9959 8.90872 12.9959 8.76001C12.9959 8.41981 12.7327 8.14401 12.4079 8.14401C12.0832 8.14401 11.8199 8.41981 11.8199 8.76001C11.8199 8.92568 11.9543 9.03645 12.0558 9.14716C12.1628 9.2638 12.2413 9.37601 12.4079 9.37601Z" fill="#AD1619"/>
<path fill-rule="evenodd" clip-rule="evenodd" d="M11.652 16.992H13.164V17.888C13.164 17.888 12.975 17.776 12.786 17.776C12.597 17.776 12.408 17.888 12.408 17.888C12.408 17.888 12.219 17.776 12.03 17.776C11.841 17.776 11.652 17.888 11.652 17.888V16.992Z" fill="#005BBF"/>
<mask id="mask3_1461_1348" style="mask-type:luminance" maskUnits="userSpaceOnUse" x="11" y="16" width="3" height="2">
<path fill-rule="evenodd" clip-rule="evenodd" d="M11.652 16.992H13.164V17.888C13.164 17.888 12.975 17.776 12.786 17.776C12.597 17.776 12.408 17.888 12.408 17.888C12.408 17.888 12.219 17.776 12.03 17.776C11.841 17.776 11.652 17.888 11.652 17.888V16.992Z" fill="white"/>
</mask>
<g mask="url(#mask3_1461_1348)">
<path d="M11.6383 17.7119L11.6053 17.6046C11.7415 17.5238 11.8781 17.4833 12.015 17.4833C12.1034 17.4833 12.1496 17.4997 12.2281 17.5463C12.2971 17.5872 12.3328 17.5999 12.4082 17.5999C12.4837 17.5999 12.5194 17.5872 12.5884 17.5463C12.6669 17.4997 12.713 17.4833 12.8015 17.4833C12.9383 17.4833 13.075 17.5238 13.2112 17.6046L13.1782 17.7119C13.0522 17.6372 12.9267 17.5999 12.8015 17.5999C12.7261 17.5999 12.6903 17.6127 12.6214 17.6536C12.5429 17.7002 12.4967 17.7166 12.4082 17.7166C12.3198 17.7166 12.2736 17.7002 12.1951 17.6536C12.1262 17.6127 12.0904 17.5999 12.015 17.5999C11.8897 17.5999 11.7643 17.6372 11.6383 17.7119Z" fill="white"/>
<path d="M11.6383 17.3759L11.6053 17.2686C11.7415 17.1878 11.8781 17.1473 12.015 17.1473C12.1034 17.1473 12.1496 17.1637 12.2281 17.2103C12.2971 17.2512 12.3328 17.2639 12.4082 17.2639C12.4837 17.2639 12.5194 17.2512 12.5884 17.2103C12.6669 17.1637 12.713 17.1473 12.8015 17.1473C12.9383 17.1473 13.075 17.1878 13.2112 17.2686L13.1782 17.3759C13.0522 17.3012 12.9267 17.2639 12.8015 17.2639C12.7261 17.2639 12.6903 17.2767 12.6214 17.3176C12.5429 17.3642 12.4967 17.3806 12.4082 17.3806C12.3198 17.3806 12.2736 17.3642 12.1951 17.3176C12.1262 17.2767 12.0904 17.2639 12.015 17.2639C11.8897 17.2639 11.7643 17.3012 11.6383 17.3759Z" fill="white"/>
</g>
<path fill-rule="evenodd" clip-rule="evenodd" d="M3.74094 15.6799C3.89238 15.4351 3.97707 15.2124 3.97707 14.9759C3.97707 14.8267 3.94379 14.6979 3.88546 14.5927L3.89532 14.5868C3.89441 14.5873 4.06146 14.4902 4.11962 14.4531C4.22773 14.3839 4.32298 14.3107 4.41585 14.2207C4.47513 14.1632 4.55457 14.1006 4.67567 14.0139C4.69657 13.9989 4.75318 13.9588 4.78936 13.9332L4.7895 13.9331L4.82019 13.9114C4.87905 13.8695 4.92287 13.8375 4.96359 13.806C5.09047 13.7078 5.17431 13.6267 5.23844 13.5183C5.39033 13.2615 5.35879 12.9134 5.14595 12.7202C5.04167 12.6255 4.90095 12.5712 4.69468 12.5284L4.65204 12.5196L4.65199 12.5196L4.65121 12.5194C4.58052 12.5049 4.44598 12.4771 4.39966 12.4674C4.30095 12.4468 4.21288 12.4275 4.13435 12.4092C4.65077 12.2946 5.3882 12.3367 5.71257 12.56L6.02087 11.7639C5.35986 11.3088 3.85376 11.3553 3.29116 11.8719C2.87851 12.2508 2.93388 12.8236 3.36322 13.0702C3.54263 13.1733 3.7765 13.2417 4.20929 13.3344C4.13676 13.3905 4.07663 13.4417 4.02061 13.496C3.96379 13.5511 3.90291 13.5979 3.82908 13.6451C3.79376 13.6677 3.68917 13.7289 3.64125 13.757L3.61716 13.7711C3.26745 13.9832 3.09772 14.2765 3.14844 14.8059L3.1759 15.0925L3.22514 15.1127L3.74094 15.6799ZM3.30865 14.9393L3.30759 14.9434L3.3084 14.9405L3.30865 14.9393ZM12.5294 14.9759C12.5294 15.2124 12.6141 15.4351 12.7656 15.6799L13.2814 15.1127L13.3306 15.0925L13.3581 14.8059C13.4088 14.2765 13.2391 13.9832 12.8893 13.7711L12.8653 13.757C12.8174 13.7289 12.7128 13.6677 12.6774 13.6451C12.6036 13.5979 12.5427 13.5511 12.4859 13.496C12.4299 13.4417 12.3698 13.3905 12.2972 13.3344C12.73 13.2417 12.9639 13.1733 13.1433 13.0702C13.5726 12.8236 13.628 12.2508 13.2153 11.8719C12.6528 11.3553 11.1467 11.3088 10.4856 11.7639L10.7939 12.56C11.1183 12.3367 11.8557 12.2946 12.3722 12.4092C12.2936 12.4275 12.2056 12.4468 12.1068 12.4674C12.0604 12.4772 11.925 12.5051 11.8545 12.5196L11.8118 12.5284C11.6056 12.5712 11.4648 12.6255 11.3606 12.7202C11.1477 12.9134 11.1162 13.2615 11.2681 13.5183C11.3322 13.6267 11.416 13.7078 11.5429 13.806C11.5836 13.8375 11.6275 13.8695 11.6863 13.9114L11.7171 13.9332L11.7175 13.9335C11.7537 13.9591 11.81 13.9989 11.8308 14.0139C11.9519 14.1006 12.0314 14.1632 12.0907 14.2207C12.1835 14.3107 12.2788 14.3839 12.3869 14.4531C12.4451 14.4902 12.6121 14.5873 12.6112 14.5868L12.621 14.5927C12.5627 14.6979 12.5294 14.8267 12.5294 14.9759Z" fill="#AD1619"/>
<path d="M4.4425 12.4L4.69044 12.4684V12.9612C4.42637 13.2421 3.75598 13.7156 3.75598 13.7156V12.4H4.4425Z" fill="#F1F9FF"/>
<path d="M12.2359 12.4L11.988 12.4684V12.9612C12.252 13.2421 12.9224 13.7156 12.9224 13.7156V12.4H12.2359Z" fill="#F1F9FF"/>
<path fill-rule="evenodd" clip-rule="evenodd" d="M11.0819 7.20597V7.04198C10.6499 6.62854 10.1974 6.42181 9.72455 6.42181C9.27124 6.15434 8.81239 6.05051 8.34801 6.11033C8.34814 6.10843 8.34821 6.10745 8.34821 6.10745C7.64997 6.01636 6.9463 6.42181 6.9463 6.42181C6.23702 6.42181 5.58893 7.04198 5.58893 7.04198V7.20597L6.43615 8.34049C6.43615 8.34049 6.67463 9.43249 8.34475 9.17584V9.17861C8.34475 9.17861 9.45052 9.13837 9.52821 9.10391C9.55904 9.09024 9.59102 9.0778 9.62369 9.06508C9.84027 8.98077 10.0875 8.88452 10.2347 8.34049L11.0819 7.20597ZM8.34475 6.16051C8.32064 6.53825 8.18297 8.81515 8.34475 9.16816V6.16051Z" fill="#AD1619"/>
<path fill-rule="evenodd" clip-rule="evenodd" d="M6.23524 8.14957L6.23581 8.14612L5.63977 7.39843L5.69733 7.31686L6.25662 8.01846L6.27094 7.93068C6.36244 7.95721 6.42931 7.96696 6.4683 7.96144V7.80924L6.59228 7.8987C6.65326 7.9427 6.74059 7.95454 6.85561 7.92958C6.94009 7.91125 6.9971 7.78043 7.01574 7.50167L7.05337 6.9389L7.17959 7.47825C7.23671 7.72231 7.32385 7.8299 7.4479 7.8299C7.56906 7.8299 7.61776 7.77067 7.62313 7.62139L7.63838 7.19801L7.78198 7.57617C7.83371 7.71241 7.90506 7.77422 8.0065 7.77422C8.15158 7.77422 8.2485 7.61294 8.2485 7.3599H8.25124H8.4165H8.41924C8.41924 7.61294 8.51616 7.77422 8.66125 7.77422C8.76269 7.77422 8.83403 7.71241 8.88576 7.57617L9.02936 7.19801L9.04461 7.62139C9.04999 7.77067 9.09869 7.8299 9.21984 7.8299C9.34389 7.8299 9.43103 7.72231 9.48815 7.47825L9.61437 6.9389L9.652 7.50167C9.67064 7.78043 9.72765 7.91125 9.81213 7.92958C9.92715 7.95454 10.0145 7.9427 10.0755 7.8987L10.1994 7.80924V7.96144C10.2384 7.96696 10.3053 7.95721 10.3968 7.93068L10.4234 8.09355L11.0425 7.31686L11.1001 7.39843L10.3296 8.36494C10.2172 8.64097 10.1606 8.82316 10.1606 8.89884C10.1606 9.0143 9.93529 9.08283 9.4956 9.15322C9.15113 9.20837 8.74461 9.24538 8.41208 9.25091V9.25163L8.36993 9.25145L8.32777 9.25163V9.25091C7.99524 9.24538 7.58872 9.20837 7.24425 9.15322C6.80456 9.08283 6.57927 9.0143 6.57927 8.89884C6.57927 8.88453 6.57724 8.8664 6.57319 8.84454C6.52886 8.76926 6.49768 8.6461 6.47694 8.535C6.45747 8.48305 6.43524 8.42631 6.41025 8.36494L6.23955 8.15081L6.23524 8.14957ZM10.3643 8.1676C10.2268 8.20007 10.1274 8.19679 10.0747 8.13957C9.99227 8.17156 9.89556 8.17463 9.78515 8.15067C9.66722 8.12509 9.5851 8.0205 9.53568 7.847C9.47117 7.95659 9.3896 8.02423 9.29189 8.04611C9.82943 8.14775 10.206 8.29063 10.206 8.29063C10.206 8.29063 10.1967 8.39678 10.1741 8.52157C10.198 8.45624 10.2263 8.38364 10.259 8.30352L10.2671 8.28952L10.3643 8.1676ZM9.03823 8.00353C8.99148 7.97256 8.95415 7.92765 8.92716 7.86977C8.88708 7.91696 8.8415 7.95148 8.79088 7.97277C8.8754 7.98139 8.95804 7.9918 9.03823 8.00353ZM8.49434 7.95098C8.4289 7.91066 8.3745 7.8461 8.33387 7.76337C8.29353 7.84552 8.23961 7.90975 8.17479 7.95012C8.21319 7.9486 8.25181 7.94752 8.29061 7.94694V7.94644L8.32429 7.94656L8.35798 7.94644V7.94694C8.4037 7.94763 8.44918 7.949 8.49434 7.95098ZM6.4666 8.28186L6.38828 8.18361C6.48229 8.19604 6.55188 8.18425 6.59303 8.13957C6.67548 8.17156 6.77218 8.17463 6.88259 8.15067C7.00052 8.12509 7.08264 8.0205 7.13206 7.847C7.19471 7.95341 7.27343 8.02028 7.3674 8.04409C6.90394 8.13091 6.55816 8.24903 6.4666 8.28186ZM7.87322 7.97121C7.79184 7.97928 7.71216 7.98902 7.63468 8.00003C7.67902 7.96921 7.71459 7.92551 7.74058 7.86977C7.7797 7.91583 7.82405 7.94981 7.87322 7.97121ZM9.93973 8.90104C9.99859 8.93776 10.0458 8.90113 10.0831 8.83081C10.0798 8.85023 10.0778 8.86779 10.077 8.88351C10.0721 8.88782 10.0645 8.89299 10.0546 8.89855C10.0269 8.91406 9.98468 8.93058 9.92971 8.9473C9.82166 8.98017 9.66786 9.01284 9.48558 9.04202C9.12964 9.099 8.7064 9.1365 8.36993 9.13945C8.03345 9.1365 7.61021 9.099 7.25427 9.04202C7.07199 9.01284 6.91819 8.98017 6.81014 8.9473C6.76407 8.93329 6.72692 8.91941 6.69981 8.90615C6.7028 8.90464 6.70581 8.90294 6.70886 8.90104C6.89236 8.78655 8.10578 8.67911 8.32429 8.66057C8.54281 8.67911 9.75623 8.78655 9.93973 8.90104ZM10.1711 8.88052L10.17 8.88217L10.1706 8.88106L10.1711 8.88052Z" fill="#C88A02"/>
<path fill-rule="evenodd" clip-rule="evenodd" d="M8.33409 5.34708C8.47327 5.34708 8.58609 5.19665 8.58609 5.01108C8.58609 4.82551 8.47327 4.67508 8.33409 4.67508C8.19492 4.67508 8.08209 4.82551 8.08209 5.01108C8.08209 5.19665 8.19492 5.34708 8.33409 5.34708Z" fill="#005BBF"/>
<path fill-rule="evenodd" clip-rule="evenodd" d="M8.17019 6.99679C8.17557 7.03367 8.18397 7.068 8.19458 7.09859C8.16203 7.08202 8.12339 7.07241 8.08195 7.07241C7.96597 7.07241 7.87195 7.14763 7.87195 7.24041C7.87195 7.3332 7.96597 7.40841 8.08195 7.40841C8.19793 7.40841 8.29195 7.3332 8.29195 7.24041C8.29195 7.3332 8.38597 7.40841 8.50195 7.40841C8.61793 7.40841 8.71195 7.3332 8.71195 7.24041C8.71195 7.14763 8.61793 7.07241 8.50195 7.07241C8.47275 7.07241 8.44495 7.07718 8.41969 7.08579C8.42578 7.03986 8.42551 6.9872 8.41756 6.93268C8.39543 6.78088 8.32212 6.67217 8.25381 6.68988C8.1855 6.70758 8.14806 6.84499 8.17019 6.99679ZM8.29195 7.24041L8.29185 7.23529L8.29204 7.23537L8.29195 7.24041ZM6.93458 7.21059C6.92397 7.18 6.91557 7.14567 6.91019 7.10879C6.88806 6.95699 6.9255 6.81958 6.99381 6.80188C7.06212 6.78417 7.13543 6.89288 7.15756 7.04468C7.16551 7.0992 7.16578 7.15186 7.15969 7.19779C7.18495 7.18918 7.21275 7.18441 7.24195 7.18441C7.35793 7.18441 7.45195 7.25963 7.45195 7.35241C7.45195 7.4452 7.35793 7.52041 7.24195 7.52041C7.12597 7.52041 7.03195 7.4452 7.03195 7.35241L7.03204 7.34737L7.03185 7.34729L7.03195 7.35241C7.03195 7.4452 6.93793 7.52041 6.82195 7.52041C6.70597 7.52041 6.61195 7.4452 6.61195 7.35241C6.61195 7.25963 6.70597 7.18441 6.82195 7.18441C6.86339 7.18441 6.90203 7.19402 6.93458 7.21059ZM9.5654 7.31297C9.55571 7.40485 9.45476 7.46189 9.3399 7.44037C9.22505 7.41885 9.1398 7.32692 9.14948 7.23504C9.15917 7.14316 9.26013 7.08612 9.37498 7.10764C9.41602 7.11533 9.45328 7.13201 9.48378 7.15447C9.47646 7.1222 9.47173 7.08664 9.47026 7.04913C9.46419 6.8947 9.5156 6.76557 9.58509 6.76072C9.65459 6.75586 9.71584 6.87711 9.72191 7.03154C9.72409 7.08701 9.71886 7.13921 9.70803 7.18356C9.73395 7.17972 9.76198 7.18016 9.79089 7.18558C9.90574 7.2071 9.99099 7.29903 9.98131 7.39091C9.97162 7.48279 9.87067 7.53983 9.75582 7.51831C9.64097 7.49678 9.55571 7.40485 9.5654 7.31297ZM9.5654 7.31297L9.56584 7.30788L9.56602 7.308L9.5654 7.31297ZM10.3652 7.75723C10.4676 7.82983 10.5771 7.82227 10.6098 7.74034L10.6115 7.73576C10.6216 7.74999 10.6335 7.76036 10.6472 7.76591C10.7137 7.79304 10.7951 7.69514 10.829 7.54726C10.863 7.39938 10.8365 7.2575 10.77 7.23038C10.7034 7.20325 10.622 7.30114 10.5881 7.44902C10.5798 7.48495 10.5751 7.52052 10.5737 7.55418C10.5508 7.51917 10.5201 7.4865 10.4835 7.46056C10.3811 7.38796 10.2716 7.39552 10.2389 7.47744C10.2063 7.55936 10.2628 7.68463 10.3652 7.75723ZM6.24356 7.79154C6.14116 7.86414 6.03166 7.85658 5.99899 7.77465C5.99839 7.77314 5.99781 7.77161 5.99727 7.77007C5.98718 7.7843 5.97524 7.79466 5.96162 7.80022C5.89507 7.82734 5.81363 7.72945 5.77972 7.58157C5.74581 7.43369 5.77227 7.29181 5.83882 7.26469C5.90537 7.23756 5.9868 7.33545 6.02071 7.48333C6.02895 7.51926 6.03362 7.55483 6.03503 7.58848C6.05793 7.55347 6.08866 7.52081 6.12525 7.49487C6.22766 7.42227 6.33716 7.42983 6.36983 7.51175C6.4025 7.59367 6.34597 7.71894 6.24356 7.79154Z" fill="#C88A02"/>
<path fill-rule="evenodd" clip-rule="evenodd" d="M8.24009 4.0766H8.41509V4.224H8.52943V4.45734H8.41509V4.924H8.52943V5.15734H8.12396V4.924H8.24009V4.45734H8.12396V4.224H8.24009V4.0766Z" fill="#C88A02"/>
<rect x="8.20795" y="5.34399" width="0.335999" height="1.456" fill="#C88A02"/>
<path d="M6.85538 5.58782L6.85392 5.6998C6.10909 5.68247 5.68185 5.82739 5.5734 6.11624C5.46127 6.41487 5.48212 6.77789 5.63923 7.20912L5.56367 7.25806C5.39605 6.79796 5.37315 6.39937 5.49828 6.06611C5.62708 5.72306 6.07905 5.56975 6.85538 5.58782Z" fill="white"/>
<path d="M6.99952 6.58098L6.95646 6.67714C6.79426 6.54801 6.71307 6.32763 6.71307 6.02393C6.71307 5.58745 6.88171 5.3315 7.25472 5.15634C7.49279 5.04455 7.81799 5.09038 8.23126 5.29016L8.20263 5.39545C7.8059 5.20367 7.49893 5.16041 7.28262 5.26198C6.94048 5.42264 6.79707 5.64031 6.79707 6.02393C6.79707 6.29044 6.8645 6.47349 6.99952 6.58098Z" fill="white"/>
<path d="M5.74504 7.03739L5.58654 7.11162C5.42208 6.48727 5.46904 6.06326 5.75006 5.88035C5.99769 5.71918 6.35858 5.65359 6.83452 5.67931L6.82772 5.90313C6.37709 5.87878 6.04184 5.93971 5.82376 6.08165C5.63907 6.20185 5.60529 6.50684 5.74504 7.03739Z" fill="#C88A02"/>
<path d="M7.59694 5.43869C7.21283 5.43869 7.0551 5.56343 6.96499 5.93171C6.90756 6.16641 6.96325 6.36673 7.14385 6.55371L7.04081 6.73063C6.807 6.48855 6.72457 6.19207 6.80527 5.86224C6.92011 5.39289 7.14545 5.21469 7.59694 5.21469C7.89285 5.21469 8.12337 5.31835 8.28388 5.52931L8.30891 5.56221V6.64217H8.14091V5.65795C8.01555 5.51277 7.83549 5.43869 7.59694 5.43869Z" fill="#C88A02"/>
<path d="M9.78671 5.69982L9.78817 5.8118C10.533 5.79447 10.9602 5.93939 11.0687 6.22824C11.1808 6.52687 11.16 6.88989 11.0029 7.32112L11.0784 7.37006C11.246 6.90996 11.2689 6.51137 11.1438 6.17811C11.015 5.83506 10.563 5.68175 9.78671 5.69982Z" fill="white"/>
<path d="M9.52367 6.60426L9.56673 6.70043C9.72894 6.57129 9.81012 6.35092 9.81012 6.04722C9.81012 5.61074 9.64149 5.35478 9.26847 5.17962C9.03041 5.06783 8.7052 5.11367 8.29194 5.31345L8.32057 5.41874C8.71729 5.22696 9.02426 5.18369 9.24057 5.28526C9.58271 5.44592 9.72612 5.6636 9.72612 6.04722C9.72612 6.31373 9.65869 6.49677 9.52367 6.60426Z" fill="white"/>
<path d="M10.9494 7.14939L11.1079 7.22362C11.2723 6.59927 11.2254 6.17526 10.9443 5.99235C10.6967 5.83118 10.3358 5.76559 9.85988 5.79131L9.86668 6.01513C10.3173 5.99078 10.6526 6.05171 10.8706 6.19365C11.0553 6.31385 11.0891 6.61884 10.9494 7.14939Z" fill="#C88A02"/>
<path d="M9.08793 5.45599C9.47204 5.45599 9.62978 5.58073 9.71989 5.94902C9.77732 6.18372 9.72162 6.38403 9.54103 6.57102L9.64407 6.74794C9.87787 6.50586 9.96031 6.20937 9.87961 5.87954C9.76476 5.41019 9.53942 5.23199 9.08793 5.23199C8.79202 5.23199 8.56151 5.33565 8.401 5.54661L8.37597 5.57951V6.65948H8.54397V5.67525C8.66932 5.53008 8.84939 5.45599 9.08793 5.45599Z" fill="#C88A02"/>
<path opacity="0.3" fill-rule="evenodd" clip-rule="evenodd" d="M5.60394 9.26401H11.0639V15.8048C11.0639 15.8048 10.6584 18 8.33394 18C6.00952 18 5.60394 15.747 5.60394 15.747V9.26401Z" fill="#E1E5E8"/>
<mask id="mask4_1461_1348" style="mask-type:luminance" maskUnits="userSpaceOnUse" x="5" y="9" width="7" height="9">
<path fill-rule="evenodd" clip-rule="evenodd" d="M5.60394 9.26401H11.0639V15.8048C11.0639 15.8048 10.6584 18 8.33394 18C6.00952 18 5.60394 15.747 5.60394 15.747V9.26401Z" fill="white"/>
</mask>
<g mask="url(#mask4_1461_1348)">
<rect x="5.60394" y="13.296" width="2.772" height="4.368" fill="#FFC034"/>
<rect x="5.93994" y="13.52" width="0.336" height="4.144" fill="#AD1619"/>
<rect x="7.11597" y="13.52" width="0.336" height="4.144" fill="#AD1619"/>
<rect x="6.52795" y="13.52" width="0.336" height="4.144" fill="#AD1619"/>
<rect x="7.70392" y="13.52" width="0.336" height="4.144" fill="#AD1619"/>
<rect x="5.60394" y="9.15201" width="2.772" height="4.256" fill="#AD1619"/>
<rect x="8.29193" y="13.184" width="2.772" height="4.256" fill="#AD1619"/>
<rect x="8.29193" y="9.26401" width="2.94" height="4.144" fill="#F1F9FF"/>
<path fill-rule="evenodd" clip-rule="evenodd" d="M6.77996 9.60001H7.03196V10.5292H7.19996V10.0646H7.45196V10.5292H7.70396V11.1099H7.45196V12.1553H7.70396V12.736H6.19196V12.1553H6.44396V11.1099H6.19196V10.5292H6.35996V10.0646H6.61196V10.5292H6.77996V9.60001Z" fill="#C88A02"/>
<path d="M9.73407 9.79504L9.90609 9.5495L10.2672 9.99932L10.0952 10.2449L9.73407 9.79504Z" fill="#C88A02"/>
<path fill-rule="evenodd" clip-rule="evenodd" d="M10.7699 16.1401V13.688H8.66992V16.1196L8.67325 16.1385C8.77956 16.7425 9.14158 17.048 9.71992 17.048C10.2977 17.048 10.6597 16.7503 10.7664 16.1595L10.7699 16.1401ZM9.71992 16.712C9.25589 16.712 9.00248 16.5036 8.92192 16.0799V14.024H10.5179V16.0994C10.4376 16.5093 10.1841 16.712 9.71992 16.712Z" fill="#FFC034"/>
<path fill-rule="evenodd" clip-rule="evenodd" d="M9.80665 13.8929H9.63165V15.0046L8.94179 14.0042L8.81812 14.1558L9.442 15.0605H8.87673V15.3965H9.31096H9.45575L8.81812 16.3212L8.94179 16.4728L9.63165 15.4724V16.7718H9.80665V15.5893L10.4159 16.4728L10.5396 16.3212L9.90192 15.3965H10.6136V15.0605H9.91567L10.5396 14.1558L10.4159 14.0042L9.80665 14.8877V13.8929Z" fill="#FFC034"/>
<path fill-rule="evenodd" clip-rule="evenodd" d="M10.112 17.4427C10.112 17.4427 8.33285 17.6292 8.33285 16.0992C8.33285 16.0992 8.31588 17.4427 6.45813 17.4427V18.6505H10.112V17.4427Z" fill="#F1F9FF"/>
<path fill-rule="evenodd" clip-rule="evenodd" d="M8.33392 14.192C8.68186 14.192 8.96392 13.7908 8.96392 13.296C8.96392 12.8011 8.68186 12.4 8.33392 12.4C7.98598 12.4 7.70392 12.8011 7.70392 13.296C7.70392 13.7908 7.98598 14.192 8.33392 14.192Z" fill="#005BBF" stroke="#AD1619" stroke-width="1.16667"/>
</g>
</g>
</g>
</g>
<rect width="24" height="24" rx="12" fill="url(#paint0_linear_1461_1348)" style="mix-blend-mode:overlay"/>
<defs>
<linearGradient id="paint0_linear_1461_1348" x1="12" y1="0" x2="12" y2="24" gradientUnits="userSpaceOnUse">
<stop stop-color="white" stop-opacity="0.7"/>
<stop offset="1" stop-opacity="0.3"/>
</linearGradient>
<clipPath id="clip0_1461_1348">
<rect width="24" height="24" rx="12" fill="white"/>
</clipPath>
</defs>
</svg>
