<svg width="69" height="70" viewBox="0 0 69 70" fill="none" xmlns="http://www.w3.org/2000/svg">
<path d="M19.7607 13.3362C21.8507 13.3362 23.8495 13.733 25.6865 14.4543C23.8674 15.6515 22.2759 17.1664 20.9912 18.9202C20.5873 18.8739 20.1769 18.8479 19.7607 18.8479C13.8341 18.8479 9.0127 23.6703 9.0127 29.5969C9.01292 35.5234 13.8349 40.3451 19.7607 40.345C20.1507 40.345 20.5357 40.3222 20.915 40.2815C22.1865 42.0435 23.7659 43.5682 25.5742 44.7776C24.5891 45.156 23.5581 45.4411 22.4922 45.6223C22.5005 45.7013 22.5176 45.7763 22.5176 45.8567V53.4358H30.0947C31.6174 53.4358 32.8514 54.6696 32.8516 56.1907C32.8516 57.7127 31.6174 58.9475 30.0947 58.9475H22.5176V66.5266C22.5175 68.0478 21.2823 69.2823 19.7607 69.2825C18.2392 69.2825 17.005 68.0485 17.0049 66.5266V58.9475H9.42578C7.90357 58.9474 6.66992 57.7126 6.66992 56.1907C6.6701 54.6695 7.90368 53.4359 9.42578 53.4358H17.0039V45.8567C17.0039 45.7764 17.0214 45.7013 17.0283 45.6223C9.35991 44.3186 3.5002 37.631 3.5 29.5969C3.5 20.6306 10.7947 13.3362 19.7607 13.3362Z" fill="white"/>
<path d="M50.727 10.8832L45.3682 16.242C45.3114 16.2989 45.2703 16.3634 45.2203 16.4252C38.8754 11.924 30.0031 12.5104 24.3221 18.1914C17.9819 24.5315 17.9817 34.8466 24.322 41.1869C30.662 47.5269 40.9776 47.5272 47.3177 41.187C52.9988 35.5059 53.5848 26.6334 49.0842 20.2891C49.145 20.2381 49.2099 20.1972 49.2667 20.1404L54.6255 14.7816L55.924 13.4493L56.913 12.4603L58.5225 10.8836L63.8818 5.52428C64.958 4.44811 64.9578 2.70319 63.8819 1.62726C62.8058 0.551176 61.0596 0.550594 59.9839 1.62635L54.6246 6.98565L50.727 10.8832ZM43.4199 37.2893C39.2292 41.48 32.41 41.4805 28.2192 37.2898C24.0282 33.0987 24.0278 26.2795 28.219 22.0883C32.4102 17.8971 39.2289 17.898 43.4199 22.089C47.6103 26.2792 47.6107 33.0985 43.4199 37.2893Z" fill="white"/>
<path d="M59.1725 16.368L59.1725 6.14843L49.3456 6.40041C47.6849 6.44299 46.3156 5.10834 46.3156 3.44707C46.3156 1.83565 47.6069 0.521481 49.2181 0.493214L63.2089 0.247762C64.2515 0.229471 65.1065 1.0696 65.1065 2.11234L65.1065 16.368C65.1065 18.0067 63.7781 19.335 62.1395 19.335C60.5009 19.335 59.1725 18.0067 59.1725 16.368Z" fill="white"/>
</svg>
