<svg width="24" height="24" viewBox="0 0 24 24" fill="none" xmlns="http://www.w3.org/2000/svg">
<g clip-path="url(#clip0_1461_1499)">
<mask id="mask0_1461_1499" style="mask-type:luminance" maskUnits="userSpaceOnUse" x="-1" y="-1" width="26" height="26">
<rect x="-1" y="-1" width="26" height="26" fill="white"/>
</mask>
<g mask="url(#mask0_1461_1499)">
<path fill-rule="evenodd" clip-rule="evenodd" d="M-1 -1V25H25V-1H-1Z" fill="#2E42A5"/>
<mask id="mask1_1461_1499" style="mask-type:luminance" maskUnits="userSpaceOnUse" x="-1" y="-1" width="26" height="26">
<path fill-rule="evenodd" clip-rule="evenodd" d="M-1 -1V25H25V-1H-1Z" fill="white"/>
</mask>
<g mask="url(#mask1_1461_1499)">
<mask id="mask2_1461_1499" style="mask-type:luminance" maskUnits="userSpaceOnUse" x="-1" y="-1" width="26" height="26">
<rect x="-1" y="-1" width="26" height="26" fill="white"/>
</mask>
<g mask="url(#mask2_1461_1499)">
<path d="M-3.89508 23.1425L1.82629 26.3688L25.1298 2.50769L28.1477 -2.28659L22.0295 -3.36489L12.5246 6.91754L4.87406 13.8455L-3.89508 23.1425Z" fill="white"/>
<path d="M-3.11182 25.4029L-0.197041 27.2751L27.064 -2.73204H22.9713L-3.11182 25.4029Z" fill="#F50100"/>
<path d="M27.8951 23.1425L22.1737 26.3688L-1.1298 2.50769L-4.14769 -2.28659L1.97049 -3.36489L11.4754 6.91754L19.1259 13.8455L27.8951 23.1425Z" fill="white"/>
<path d="M27.6999 24.7648L24.7851 26.637L13.1771 13.7894L9.73556 12.354L-4.43805 -2.27018H-0.345366L13.8203 12.0068L17.583 13.7281L27.6999 24.7648Z" fill="#F50100"/>
<mask id="path-10-inside-1_1461_1499" fill="white">
<path d="M15.0693 7.66635H26.6474V16.3333H15.0693V27.1664H8.9306V16.3333H-2.6026V7.66635H8.9306V-3.16666H15.0693V7.66635Z"/>
</mask>
<path d="M15.0693 7.66635H26.6474V16.3333H15.0693V27.1664H8.9306V16.3333H-2.6026V7.66635H8.9306V-3.16666H15.0693V7.66635Z" fill="#F50100"/>
<path d="M15.0693 7.66635H13.0693V9.66635H15.0693V7.66635ZM26.6474 7.66635H28.6474V5.66635H26.6474V7.66635ZM26.6474 16.3333V18.3333H28.6474V16.3333H26.6474ZM15.0693 16.3333V14.3333H13.0693V16.3333H15.0693ZM15.0693 27.1664V29.1664H17.0693V27.1664H15.0693ZM8.9306 27.1664H6.9306V29.1664H8.9306V27.1664ZM8.9306 16.3333H10.9306V14.3333H8.9306V16.3333ZM-2.6026 16.3333H-4.6026V18.3333H-2.6026V16.3333ZM-2.6026 7.66635V5.66635H-4.6026V7.66635H-2.6026ZM8.9306 7.66635V9.66635H10.9306V7.66635H8.9306ZM8.9306 -3.16666V-5.16666H6.9306V-3.16666H8.9306ZM15.0693 -3.16666H17.0693V-5.16666H15.0693V-3.16666ZM15.0693 7.66635V9.66635H26.6474V7.66635V5.66635H15.0693V7.66635ZM26.6474 7.66635H24.6474V16.3333H26.6474H28.6474V7.66635H26.6474ZM26.6474 16.3333V14.3333H15.0693V16.3333V18.3333H26.6474V16.3333ZM15.0693 16.3333H13.0693V27.1664H15.0693H17.0693V16.3333H15.0693ZM15.0693 27.1664V25.1664H8.9306V27.1664V29.1664H15.0693V27.1664ZM8.9306 27.1664H10.9306V16.3333H8.9306H6.9306V27.1664H8.9306ZM8.9306 16.3333V14.3333H-2.6026V16.3333V18.3333H8.9306V16.3333ZM-2.6026 16.3333H-0.6026V7.66635H-2.6026H-4.6026V16.3333H-2.6026ZM-2.6026 7.66635V9.66635H8.9306V7.66635V5.66635H-2.6026V7.66635ZM8.9306 7.66635H10.9306V-3.16666H8.9306H6.9306V7.66635H8.9306ZM8.9306 -3.16666V-1.16666H15.0693V-3.16666V-5.16666H8.9306V-3.16666ZM15.0693 -3.16666H13.0693V7.66635H15.0693H17.0693V-3.16666H15.0693Z" fill="white" mask="url(#path-10-inside-1_1461_1499)"/>
</g>
</g>
</g>
</g>
<rect width="24" height="24" rx="12" fill="url(#paint0_linear_1461_1499)" style="mix-blend-mode:overlay"/>
<defs>
<linearGradient id="paint0_linear_1461_1499" x1="12" y1="0" x2="12" y2="24" gradientUnits="userSpaceOnUse">
<stop stop-color="white" stop-opacity="0.7"/>
<stop offset="1" stop-opacity="0.3"/>
</linearGradient>
<clipPath id="clip0_1461_1499">
<rect width="24" height="24" rx="12" fill="white"/>
</clipPath>
</defs>
</svg>
